<?xml version="1.0" standalone="no"?>
<svg xmlns="http://www.w3.org/2000/svg" viewBox="0 0 179.905 29" width="179.905" height="29"><g fill="#ff5576" color="#ff5576" transform="translate(0, 0) scale(0.29)"><svg width="100.0" height="100.0" x="0.0" y="0.0" viewBox="0 0 100 100"><path d="M78.8,71.5l3.5,2l0.1-0.2c4.9-6.8,7.5-14.9,7.5-23.4c0.1-10.9-4-21.1-11.6-28.7C70.7,13.5,60.6,9.2,49.7,9.2  C27.5,9.2,9.3,27.4,9.3,49.7s18.1,40.4,40.4,40.4c3.9,0,7.6-0.5,11.1-1.6l0.2-0.1l-0.8-4l-0.3,0.1c-3.4,1-6.9,1.6-10.4,1.6  c-20,0-36.3-16.3-36.3-36.3c0-20,16.3-36.3,36.3-36.3S86,29.7,86,49.8c0,7.7-2.4,15.1-7,21.5L78.8,71.5z"></path><path d="M83.9,16C74.8,6.8,62.6,1.8,49.7,1.8c-4.5,0-8.8,0.6-12.9,1.8l-0.2,0.1l0.7,3.7l0.3-0.1  c4-1.1,8.1-1.7,12.1-1.7c24.5,0,44.5,19.9,44.5,44.5S74.2,94.5,49.7,94.5C25.2,94.4,5.3,74.4,5.3,49.9c0-9.3,2.8-18.1,8.2-25.7  l0.2-0.2l-3.3-1.9l-0.1,0.2C4.5,30.4,1.5,40,1.5,50.1c0,26.5,21.6,48.1,48.1,48.1c26.6,0,48.2-21.6,48.2-48.1  C97.9,37.2,93,25.1,83.9,16z"></path><path d="M48.5,60.7l-1.4,5.7l4.5-3.2L51,60.8l1.9-2.2c0.1-0.1,0.1-0.2,0-0.3l-1.2-2.8c0-0.1-0.1-0.1-0.2-0.1H48  c-0.1,0-0.2,0.1-0.2,0.1l-1.1,2.8c0,0.1,0,0.2,0,0.3L48.5,60.7z"></path><path d="M49.8,25.1c-7.1,0-12.9,5.8-12.9,12.9c0,7.1,5.8,12.9,12.9,12.9c7.1,0,12.9-5.8,12.9-12.9  C62.7,30.9,56.9,25.1,49.8,25.1z M49.8,48c-5.5,0-10-4.5-10-10c0-0.8,0.1-1.7,0.3-2.4c1.2,0.6,3.3,1.4,5.7,1.4  c1.7,0,3.6-0.4,5.4-1.7c0.2-0.1,4.6-3.3,8.1-0.1c0.3,0.9,0.4,1.9,0.4,2.9C59.8,43.5,55.3,48,49.8,48z"></path><polygon points="53.8,72.4 53.2,69.7 49.3,72.4 "></polygon><polygon points="46.6,72.4 52.8,68.1 52,65 46.6,68.8 45.7,72.4 "></polygon><path d="M73,72.4v-5.8c0-6.2-5-11.2-11.2-11.2h-0.3l-5.2,17.1H73z"></path><path d="M43.3,72.4l-5-17.1h-0.5c-6.2,0-11.2,5-11.2,11.2v5.8H43.3z"></path></svg></g><line x1="41" y1="1" x2="41" y2="28" stroke="#0b0cac" stroke-linecap="round"></line><path fill="#0b0cac" fill-rule="nonzero" d="M4.10 21.67L0 21.67L0 1.06L4.10 1.06L4.10 8.42L6.05 8.42L6.05 1.06L10.15 1.06L10.15 21.67L6.05 21.67L6.05 12.31L4.10 12.31L4.10 21.67ZM16.08 2.93L11.88 2.93L11.88 0L16.08 0L16.08 2.93ZM16.08 21.67L11.88 21.67L11.88 4.10L16.08 4.10L16.08 21.67ZM24.84 21.67L19.97 21.67L17.16 4.10L21.36 4.10L22.22 12.98L22.37 15.84L22.54 12.96L23.50 4.10L27.70 4.10L24.84 21.67ZM33.72 21.86Q31.01 21.86 29.83 20.38Q28.66 18.89 28.66 15.94L28.66 15.94L28.66 8.88Q28.66 6.46 30.05 5.18Q31.44 3.91 33.94 3.91L33.94 3.91Q39 3.91 39 8.88L39 8.88L39 10.15Q39 12.07 38.95 13.27L38.95 13.27L32.86 13.27L32.86 16.68Q32.86 17.59 33.05 18.11Q33.24 18.62 33.86 18.62L33.86 18.62Q34.34 18.62 34.55 18.34Q34.75 18.05 34.79 17.68Q34.82 17.30 34.82 16.58L34.82 16.58L34.82 14.88L39 14.88L39 15.89Q39 18.96 37.81 20.41Q36.62 21.86 33.72 21.86L33.72 21.86ZM32.83 11.18L34.82 11.18L34.82 8.93Q34.82 7.03 33.89 7.03L33.89 7.03Q32.83 7.03 32.83 8.93L32.83 8.93L32.83 11.18ZM46.20 21.67L46.20 1.06L51.89 1.06Q54.10 1.06 55.20 2.28Q56.30 3.50 56.33 5.90L56.33 5.90L56.38 15.55Q56.40 18.60 55.32 20.14Q54.24 21.67 51.74 21.67L51.74 21.67L46.20 21.67ZM50.35 18.02L51.07 18.02Q52.20 18.02 52.20 16.92L52.20 16.92L52.20 6.29Q52.20 5.59 52.09 5.24Q51.98 4.90 51.70 4.78Q51.41 4.66 50.81 4.66L50.81 4.66L50.35 4.66L50.35 18.02ZM62.14 2.93L57.94 2.93L57.94 0L62.14 0L62.14 2.93ZM62.14 21.67L57.94 21.67L57.94 4.10L62.14 4.10L62.14 21.67ZM68.62 21.86Q63.41 21.86 63.41 16.58L63.41 16.58L63.43 15.19L67.63 15.19L67.66 17.26Q67.66 17.88 67.90 18.20Q68.14 18.53 68.69 18.53L68.69 18.53Q69.53 18.53 69.53 17.16L69.53 17.16Q69.53 16.15 69.13 15.58Q68.74 15 67.87 14.35L67.87 14.35L65.64 12.62Q64.49 11.74 63.98 10.79Q63.48 9.84 63.48 8.11L63.48 8.11Q63.48 6.77 64.19 5.82Q64.90 4.87 66.07 4.39Q67.25 3.91 68.69 3.91L68.69 3.91Q73.80 3.91 73.80 9L73.80 9L73.80 9.34L69.46 9.34L69.46 8.66Q69.46 8.04 69.25 7.60Q69.05 7.15 68.57 7.15L68.57 7.15Q68.14 7.15 67.91 7.40Q67.68 7.66 67.68 8.09L67.68 8.09Q67.68 9.05 68.42 9.58L68.42 9.58L71.02 11.47Q72.41 12.50 73.15 13.72Q73.90 14.93 73.90 16.78L73.90 16.78Q73.90 19.22 72.50 20.54Q71.11 21.86 68.62 21.86L68.62 21.86ZM80.47 21.86Q77.59 21.86 76.32 20.40Q75.05 18.94 75.05 15.91L75.05 15.91L75.05 10.49Q75.05 8.21 75.54 6.78Q76.03 5.35 77.20 4.63Q78.36 3.91 80.42 3.91L80.42 3.91Q82.68 3.91 84.10 5.09Q85.51 6.26 85.51 8.38L85.51 8.38L85.51 11.06L81.24 11.06L81.24 8.59Q81.24 7.90 81.05 7.52Q80.86 7.15 80.30 7.15L80.30 7.15Q79.27 7.15 79.27 8.62L79.27 8.62L79.27 17.14Q79.27 17.74 79.52 18.16Q79.78 18.58 80.28 18.58L80.28 18.58Q80.78 18.58 81.04 18.17Q81.29 17.76 81.26 17.11L81.26 17.11L81.24 14.16L85.51 14.16L85.51 17.23Q85.51 19.39 84.11 20.63Q82.70 21.86 80.47 21.86L80.47 21.86ZM92.09 21.86Q86.83 21.86 86.83 16.42L86.83 16.42L86.83 9.36Q86.83 6.86 88.24 5.39Q89.64 3.91 92.09 3.91L92.09 3.91Q94.54 3.91 95.94 5.39Q97.34 6.86 97.34 9.36L97.34 9.36L97.34 16.42Q97.34 21.86 92.09 21.86L92.09 21.86ZM92.09 18.62Q92.59 18.62 92.83 18.26Q93.07 17.90 93.07 17.28L93.07 17.28L93.07 8.69Q93.07 7.15 92.09 7.15L92.09 7.15Q91.10 7.15 91.10 8.69L91.10 8.69L91.10 17.28Q91.10 17.90 91.34 18.26Q91.58 18.62 92.09 18.62L92.09 18.62ZM106.01 21.67L101.14 21.67L98.33 4.10L102.53 4.10L103.39 12.98L103.54 15.84L103.70 12.96L104.66 4.10L108.86 4.10L106.01 21.67ZM114.89 21.86Q112.18 21.86 111.00 20.38Q109.82 18.89 109.82 15.94L109.82 15.94L109.82 8.88Q109.82 6.46 111.22 5.18Q112.61 3.91 115.10 3.91L115.10 3.91Q120.17 3.91 120.17 8.88L120.17 8.88L120.17 10.15Q120.17 12.07 120.12 13.27L120.12 13.27L114.02 13.27L114.02 16.68Q114.02 17.59 114.22 18.11Q114.41 18.62 115.03 18.62L115.03 18.62Q115.51 18.62 115.72 18.34Q115.92 18.05 115.96 17.68Q115.99 17.30 115.99 16.58L115.99 16.58L115.99 14.88L120.17 14.88L120.17 15.89Q120.17 18.96 118.98 20.41Q117.79 21.86 114.89 21.86L114.89 21.86ZM114.00 11.18L115.99 11.18L115.99 8.93Q115.99 7.03 115.06 7.03L115.06 7.03Q114.00 7.03 114.00 8.93L114.00 8.93L114.00 11.18ZM121.68 21.67L121.68 4.10L125.88 4.10L125.88 6.05Q126.19 5.02 126.97 4.45Q127.75 3.89 128.90 3.89L128.90 3.89L128.90 7.39Q128.02 7.39 126.95 7.64Q125.88 7.90 125.88 8.23L125.88 8.23L125.88 21.67L121.68 21.67Z" transform="translate(51, 3.664)"></path></svg>